#!OML:ASF X:\für Bonn\!DataBase\2005_08_12_Daniel\c3d\Daniel.ASF
:FULLY-SPECIFIED
:DEGREES
449
root 30.0456 17.3207 -28.3941 -363.71 -75.3858 369.617
lowerback 9.47894 -2.11014 -3.72167
upperback 2.14472 -3.30837 -2.08582
thorax -2.99412 -1.65084 0.319623
lowerneck 5.79411 4.56121 -0.689958
upperneck 16.2358 5.68137 -0.976209
head 4.35384 2.49226 -0.114722
rclavicle 8.74653e-015 2.54444e-014
rhumerus -37.1973 -6.81769 -83.8672
rradius 29.2614
rwrist 7.45542
rhand -22.2998 20.5585
rfingers 7.12502
rthumb 4.11931 -9.3814
lclavicle 8.74653e-015 2.54444e-014
lhumerus -28.5243 12.2177 86.3956
lradius 27.9107
lwrist -17.7419
lhand -9.82235 -8.68012
lfingers 7.12502
lthumb 16.1547 20.6667
rfemur -13.5541 0.0672347 14.4914
rtibia 48.5676
rfoot -25.3929 -1.10959
rtoes -22.5803
lfemur -10.9427 -0.911689 -31.3009
ltibia 37.3195
lfoot -33.4288 -0.21898
ltoes -3.97272
450
root 30.0299 17.3184 -28.4035 -364.774 -74.6681 370.518
lowerback 9.66239 -2.06796 -4.09711
upperback 2.23915 -3.30732 -2.24425
thorax -2.98579 -1.65151 0.370339
lowerneck 5.78948 4.52768 -0.917358
upperneck 16.2056 5.63177 -0.925424
head 4.33368 2.45945 -0.0602753
rclavicle 6.61953e-014 2.06736e-014
rhumerus -36.8419 -6.60385 -84.1537
rradius 29.5651
rwrist 7.02883
rhand -22.5002 20.7079
rfingers 7.12502
rthumb 3.92572 -9.23571
lclavicle 6.61953e-014 2.06736e-014
lhumerus -28.1901 12.0317 86.4341
lradius 27.1694
lwrist -18.5724
lhand -9.83018 -8.75812
lfingers 7.12502
lthumb 16.1472 20.5893
rfemur -13.8711 -0.424571 14.1089
rtibia 49.6887
rfoot -25.1557 -0.789662
rtoes -22.6848
lfemur -10.468 -0.905417 -31.4932
ltibia 36.9843
lfoot -33.3818 -0.862184
ltoes -4.38813
451
root 30.0106 17.3166 -28.4119 -365.696 -73.9902 371.288
lowerback 9.82758 -2.00828 -4.44409
upperback 2.33911 -3.28007 -2.398
thorax -2.96376 -1.63998 0.405832
lowerneck 5.69649 4.48084 -1.08104
upperneck 16.2258 5.57646 -0.938563
head 4.35347 2.424 -0.0352831
rclavicle 3.57812e-015 2.3059e-014
rhumerus -36.4926 -6.37721 -84.4367
rradius 29.8784
rwrist 6.39783
rhand -22.6415 20.6362
rfingers 7.12502
rthumb 3.78931 -9.30984
lclavicle 3.57812e-015 2.3059e-014
lhumerus -27.865 11.8966 86.4601
lradius 26.4357
lwrist -19.4901
lhand -9.81316 -8.53781
lfingers 7.12502
lthumb 16.1636 20.8082
rfemur -14.2688 -0.828742 13.7669
rtibia 50.8782
rfoot -24.9789 -0.614641
rtoes -22.7169
lfemur -9.98356 -0.973276 -31.6808
ltibia 36.6537
lfoot -33.3373 -1.44798
ltoes -4.5647
452
root 29.9909 17.3114 -28.4203 -366.428 -73.271 371.876
lowerback 10.0131 -1.97955 -4.75394
upperback 2.41119 -3.29243 -2.53638
thorax -2.98162 -1.64696 0.442514
lowerneck 5.54976 4.45865 -1.31058
upperneck 16.3247 5.54604 -0.887478
head 4.40835 2.39708 0.0249668
rclavicle 3.49861e-014 -1.27222e-014
rhumerus -36.1475 -6.28375 -84.6539
rradius 30.0497
rwrist 5.947
rhand -22.7578 20.4974
rfingers 7.12502
rthumb 3.67701 -9.45058
lclavicle 3.49861e-014 -1.27222e-014
lhumerus -27.5526 11.9932 86.4087
lradius 25.5527
lwrist -20.6188
lhand -9.95484 -8.28487
lfingers 7.12502
lthumb 16.0271 21.0722
rfemur -14.7223 -1.26084 13.4459
rtibia 52.1065
rfoot -24.8866 -0.405008
rtoes -22.3379
lfemur -9.55082 -1.01122 -31.8366
ltibia 36.3712
lfoot -33.2511 -2.01149
ltoes -4.90651
453
root 29.9703 17.3031 -28.429 -367.204 -72.5418 372.473
lowerback 10.2409 -1.96315 -5.11325
upperback 2.52461 -3.32856 -2.65381
thorax -2.97429 -1.66699 0.531746
lowerneck 5.3002 4.42863 -1.45776
upperneck 16.4484 5.52725 -0.96314
head 4.49963 2.37492 0.0320231
rclavicle 5.76476e-015 -2.38542e-014
rhumerus -35.748 -6.13878 -84.8295
rradius 30.1295
rwrist 5.49674
rhand -22.8214 20.2023
rfingers 7.12502
rthumb 3.61559 -9.74674
lclavicle 5.76476e-015 -2.38542e-014
lhumerus -27.2524 12.403 86.2767
lradius 24.7034
lwrist -22.0403
lhand -10.1172 -7.91291
lfingers 7.12502
lthumb 15.8708 21.4567
rfemur -15.1875 -1.73348 13.1061
rtibia 53.3751
rfoot -24.8517 -0.265231
rtoes -21.9793
lfemur -9.07398 -1.12559 -32.0295
ltibia 36.1173
lfoot -33.1912 -2.44313
ltoes -5.325
454
root 29.948 17.2948 -28.4373 -367.866 -71.855 372.93
lowerback 10.5726 -1.9355 -5.40807
upperback 2.57524 -3.35541 -2.7789
thorax -3.09401 -1.6786 0.582149
lowerneck 5.26743 4.41154 -1.58409
upperneck 16.5114 5.51238 -1.00977
head 4.52717 2.35759 0.0392003
rclavicle 2.24627e-014 -3.10104e-014
rhumerus -35.4552 -6.06277 -85.0063
rradius 30.1396
rwrist 5.06637
rhand -22.9553 19.875
rfingers 7.12502
rthumb 3.48629 -10.0763
lclavicle 2.24627e-014 -3.10104e-014
lhumerus -27.033 12.9393 86.0429
lradius 23.7322
lwrist -23.4258
lhand -10.3695 -7.6654
lfingers 7.12502
lthumb 15.6278 21.7233
rfemur -15.6489 -2.06947 12.8192
rtibia 54.6227
rfoot -24.7515 -0.23231
rtoes -21.5014
lfemur -8.60119 -1.21708 -32.1789
ltibia 35.9073
lfoot -33.1675 -2.92431
ltoes -5.6315
